<svg xmlns="http://www.w3.org/2000/svg" viewBox="0 0 65.6 12.8"><defs><style>.cls-1{fill:#fff;}</style></defs><title>logo</title><g id="Capa_2" data-name="Capa 2"><g id="Capa_1-2" data-name="Capa 1"><path class="cls-1" d="M.39,4.44a2.89,2.89,0,0,1,1.06-1.2A2.78,2.78,0,0,1,3,2.82a2.58,2.58,0,0,1,1.24.29A2.16,2.16,0,0,1,5,3.86V2.92H7.07V9.61H5V8.66a2.14,2.14,0,0,1-.84.76,2.58,2.58,0,0,1-1.24.29,2.7,2.7,0,0,1-1.49-.43A2.92,2.92,0,0,1,.39,8.07,4,4,0,0,1,0,6.25,4,4,0,0,1,.39,4.44Zm4.2.61a1.4,1.4,0,0,0-1-.44,1.38,1.38,0,0,0-1,.44,1.66,1.66,0,0,0-.42,1.2,1.72,1.72,0,0,0,.42,1.22,1.39,1.39,0,0,0,1,.45,1.4,1.4,0,0,0,1-.44A1.71,1.71,0,0,0,5,6.26,1.7,1.7,0,0,0,4.59,5.05Z"/><path class="cls-1" d="M15.17,2.92V9.61H13.12V8.7a2.21,2.21,0,0,1-.85.71,2.59,2.59,0,0,1-1.18.27,2.64,2.64,0,0,1-1.36-.34,2.36,2.36,0,0,1-.91-1A3.31,3.31,0,0,1,8.5,6.83V2.92h2V6.55a1.49,1.49,0,0,0,.34,1,1.39,1.39,0,0,0,1.89,0,1.5,1.5,0,0,0,.35-1V2.92Z"/><path class="cls-1" d="M16.63,4.44a2.89,2.89,0,0,1,1.06-1.2,2.78,2.78,0,0,1,1.5-.42,2.53,2.53,0,0,1,1.2.28,2.15,2.15,0,0,1,.86.74V.73H23.3V9.61H21.25v-1a2,2,0,0,1-.82.77,2.61,2.61,0,0,1-1.24.29,2.71,2.71,0,0,1-1.5-.43,2.92,2.92,0,0,1-1.06-1.21,4,4,0,0,1-.39-1.82A4,4,0,0,1,16.63,4.44Zm4.2.61a1.41,1.41,0,0,0-1-.44,1.36,1.36,0,0,0-1,.44,1.66,1.66,0,0,0-.43,1.2,1.73,1.73,0,0,0,.43,1.22,1.37,1.37,0,0,0,1,.45,1.41,1.41,0,0,0,1-.44,1.71,1.71,0,0,0,.42-1.22A1.7,1.7,0,0,0,20.83,5.05Z"/><path class="cls-1" d="M24.94,1.9a1,1,0,0,1-.34-.78,1,1,0,0,1,.34-.8A1.25,1.25,0,0,1,25.82,0a1.21,1.21,0,0,1,.87.32,1,1,0,0,1,.35.8,1,1,0,0,1-.35.78,1.21,1.21,0,0,1-.87.32A1.25,1.25,0,0,1,24.94,1.9Zm1.9,1V9.61H24.79V2.92Z"/><path class="cls-1" d="M29.61,9.29a3.11,3.11,0,0,1-1.24-1.2,3.6,3.6,0,0,1-.45-1.83,3.58,3.58,0,0,1,.46-1.81,3,3,0,0,1,1.25-1.21,4,4,0,0,1,3.55,0,3.1,3.1,0,0,1,1.25,1.21,3.57,3.57,0,0,1,.45,1.81,3.49,3.49,0,0,1-.46,1.82,3.12,3.12,0,0,1-1.26,1.21,3.74,3.74,0,0,1-1.78.42A3.67,3.67,0,0,1,29.61,9.29ZM32.38,7.5a1.71,1.71,0,0,0,.42-1.24A1.74,1.74,0,0,0,32.39,5a1.27,1.27,0,0,0-1-.43,1.29,1.29,0,0,0-1,.42A1.75,1.75,0,0,0,30,6.26,1.79,1.79,0,0,0,30.4,7.5a1.26,1.26,0,0,0,1,.43A1.32,1.32,0,0,0,32.38,7.5Z"/><path class="cls-1" d="M38.86,3.11a2.54,2.54,0,0,1,1.23-.29,2.78,2.78,0,0,1,1.5.42,2.89,2.89,0,0,1,1.06,1.2A4,4,0,0,1,43,6.25a4,4,0,0,1-.39,1.82,2.92,2.92,0,0,1-1.06,1.21,2.71,2.71,0,0,1-1.5.43,2.6,2.6,0,0,1-1.23-.29A2.3,2.3,0,0,1,38,8.68V12.8H36V2.92H38v.94A2.16,2.16,0,0,1,38.86,3.11Zm1.67,1.94a1.37,1.37,0,0,0-1.05-.44,1.41,1.41,0,0,0-1,.44A1.7,1.7,0,0,0,38,6.26a1.71,1.71,0,0,0,.42,1.22,1.41,1.41,0,0,0,1,.44,1.37,1.37,0,0,0,1-.45A1.69,1.69,0,0,0,41,6.25,1.66,1.66,0,0,0,40.53,5.05Z"/><path class="cls-1" d="M50.09,3.61a3,3,0,0,1,.69,2.09V9.61h-2V6a1.49,1.49,0,0,0-.34-1.05,1.38,1.38,0,0,0-1.88,0A1.49,1.49,0,0,0,46.18,6V9.61H44.12V.73h2.06V3.82A2.06,2.06,0,0,1,47,3.11a2.66,2.66,0,0,1,1.21-.27A2.39,2.39,0,0,1,50.09,3.61Z"/><path class="cls-1" d="M52.36,1.9A1,1,0,0,1,52,1.12a1,1,0,0,1,.34-.8A1.25,1.25,0,0,1,53.24,0a1.21,1.21,0,0,1,.87.32,1,1,0,0,1,.35.8,1,1,0,0,1-.35.78,1.21,1.21,0,0,1-.87.32A1.25,1.25,0,0,1,52.36,1.9Zm1.9,1V9.61h-2V2.92Z"/><path class="cls-1" d="M57.8.73V9.61h-2V.73Z"/><path class="cls-1" d="M65.57,6.76H60.92a1.42,1.42,0,0,0,.41,1A1.21,1.21,0,0,0,62.2,8a1.07,1.07,0,0,0,1.06-.65h2.19a3,3,0,0,1-.61,1.19,3.05,3.05,0,0,1-1.1.83,3.51,3.51,0,0,1-1.47.3,3.57,3.57,0,0,1-1.75-.42,2.89,2.89,0,0,1-1.2-1.2,3.7,3.7,0,0,1-.44-1.83,3.79,3.79,0,0,1,.43-1.82,2.93,2.93,0,0,1,1.19-1.2,3.9,3.9,0,0,1,3.5,0,3,3,0,0,1,1.18,1.16,3.59,3.59,0,0,1,.42,1.77Q65.6,6.44,65.57,6.76ZM63.5,5.62a1,1,0,0,0-.36-.84,1.42,1.42,0,0,0-1.77,0,1.34,1.34,0,0,0-.43.86Z"/></g></g></svg>