<svg xmlns="http://www.w3.org/2000/svg" viewBox="0 0 605 541"><defs><style>.cls-1{fill:none;stroke:#fff;stroke-miterlimit:10;stroke-width:29px;}</style></defs><title>cart</title><g id="Capa_2" data-name="Capa 2"><g id="Capa_1-2" data-name="Capa 1"><path class="cls-1" d="M542.62,315.82l47.27-208a24,24,0,0,0-23.4-29.32H173.71l-9.17-44.81A24,24,0,0,0,141,14.5H38.5a24,24,0,0,0-24,24v16a24,24,0,0,0,24,24h69.88l70.25,343.43a56,56,0,1,0,67.05,8.57H455.32a56,56,0,1,0,63.6-10.4l5.52-24.28A24,24,0,0,0,501,366.5H232.62l-6.55-32H519.22A24,24,0,0,0,542.62,315.82Z"/></g></g></svg>